<svg width="159" height="90" viewBox="0 0 159 90" fill="none" xmlns="http://www.w3.org/2000/svg">
<rect width="159" height="89.8696" fill="#7B7B7B"/>
<rect x="13.8262" y="13.8262" width="10.3696" height="10.3696" fill="#D9D9D9"/>
<rect x="31.1089" y="13.8262" width="10.3696" height="10.3696" fill="#D9D9D9"/>
<rect x="48.3911" y="13.8262" width="10.3696" height="10.3696" fill="#D9D9D9"/>
<rect x="65.6738" y="13.8262" width="10.3696" height="10.3696" fill="#D9D9D9"/>
<rect x="82.9565" y="13.8262" width="10.3696" height="10.3696" fill="#D9D9D9"/>
<rect x="100.239" y="13.8262" width="10.3696" height="10.3696" fill="#D9D9D9"/>
<rect x="117.522" y="13.8262" width="10.3696" height="10.3696" fill="#D9D9D9"/>
<rect x="134.804" y="13.8262" width="10.3696" height="10.3696" fill="#D9D9D9"/>
<rect x="13.8262" y="31.1089" width="10.3696" height="10.3696" fill="#D9D9D9"/>
<rect x="31.1089" y="31.1089" width="10.3696" height="10.3696" fill="#D9D9D9"/>
<rect x="48.3911" y="31.1089" width="10.3696" height="10.3696" fill="#D9D9D9"/>
<rect x="65.6738" y="31.1089" width="10.3696" height="10.3696" fill="#D9D9D9"/>
<rect x="82.9565" y="31.1089" width="10.3696" height="10.3696" fill="#D9D9D9"/>
<rect x="100.239" y="31.1089" width="10.3696" height="10.3696" fill="#D9D9D9"/>
<rect x="117.522" y="31.1089" width="10.3696" height="10.3696" fill="#D9D9D9"/>
<rect x="134.804" y="31.1089" width="10.3696" height="10.3696" fill="#D9D9D9"/>
<rect x="13.8262" y="48.3911" width="10.3696" height="10.3696" fill="#D9D9D9"/>
<rect x="31.1089" y="48.3911" width="10.3696" height="10.3696" fill="#D9D9D9"/>
<rect x="48.3911" y="48.3911" width="10.3696" height="10.3696" fill="#D9D9D9"/>
<rect x="65.6738" y="48.3911" width="10.3696" height="10.3696" fill="#D9D9D9"/>
<rect x="35" y="66" width="89" height="10" fill="#D9D9D9"/>
<rect x="82.9565" y="48.3911" width="10.3696" height="10.3696" fill="#D9D9D9"/>
<rect x="100.239" y="48.3911" width="10.3696" height="10.3696" fill="#D9D9D9"/>
<rect x="117.522" y="48.3911" width="10.3696" height="10.3696" fill="#D9D9D9"/>
<rect x="134.804" y="48.3911" width="10.3696" height="10.3696" fill="#D9D9D9"/>
</svg>
