<svg width="152" height="152" viewBox="0 0 152 152" fill="none" xmlns="http://www.w3.org/2000/svg">
<g clip-path="url(#clip0_540_509)">
<path d="M21.2266 41.6219C21.2266 30.3703 30.3703 21.2266 41.6219 21.2266H59.0484V0H41.6219C18.6734 0 0 18.6734 0 41.6219V59.0781H21.2266V41.6219Z" fill="#EA4335"/>
<path d="M110.378 21.2266C121.63 21.2266 130.774 30.3703 130.774 41.6219V59.0781H152V41.6219C152 18.6734 133.327 0 110.378 0H92.9517V21.2266H110.378Z" fill="#FBBC04"/>
<path d="M41.6219 130.774C30.3703 130.774 21.2266 121.63 21.2266 110.378V92.9814H0V110.378C0 133.327 18.6734 152 41.6219 152H59.0781V130.774H41.6219Z" fill="#4285F4"/>
<path d="M76.0002 105.48C92.2814 105.48 105.48 92.2814 105.48 76.0002C105.48 59.719 92.2814 46.5205 76.0002 46.5205C59.719 46.5205 46.5205 59.719 46.5205 76.0002C46.5205 92.2814 59.719 105.48 76.0002 105.48Z" fill="#4285F4"/>
<path d="M143.539 126.825C143.539 136.117 135.998 143.628 126.736 143.628C117.444 143.628 109.933 136.088 109.933 126.825C109.933 117.533 117.473 110.022 126.736 110.022C135.998 110.022 143.539 117.563 143.539 126.825Z" fill="#34A853"/>
</g>
<defs>
<clipPath id="clip0_540_509">
<rect width="152" height="152" fill="white"/>
</clipPath>
</defs>
</svg>
