<svg width="105" height="150" viewBox="0 0 105 150" fill="none" xmlns="http://www.w3.org/2000/svg">
<g clip-path="url(#clip0_540_494)">
<mask id="mask0_540_494" style="mask-type:luminance" maskUnits="userSpaceOnUse" x="0" y="0" width="105" height="150">
<path d="M0.524902 149.487H104.483V0.522884H0.524902V149.487Z" fill="white"/>
</mask>
<g mask="url(#mask0_540_494)">
<path d="M52.5396 97.0015C64.8646 97.0015 74.777 87.0291 74.777 74.7394L74.8493 22.7855C74.8493 10.4778 64.8646 0.523381 52.5396 0.523381C40.2237 0.523381 30.23 10.4778 30.23 22.7855V74.7394C30.23 87.0291 40.2237 97.0015 52.5396 97.0015Z" fill="#4285F4"/>
<path d="M45.1021 126.122V149.476H59.9752V126.375C57.5535 126.718 55.1048 126.7 52.5838 126.7C50.0447 126.7 47.5508 126.474 45.1021 126.122Z" fill="#34A853"/>
<path d="M26.1327 101.216C19.4913 94.5254 15.3709 86.3203 15.3709 75.2659H0.524902C0.524902 90.1073 6.34403 102.307 15.7504 111.702L15.8588 111.603C15.8227 111.567 15.7866 111.54 15.7504 111.504L26.1327 101.216Z" fill="#FBBC05"/>
<path d="M89.6291 75.2615C89.6291 93.8178 73.1024 112.104 52.5638 112.104C42.2899 112.104 32.992 107.812 26.2602 101.085L26.1337 101.211L15.7515 111.508C15.7876 111.536 15.8238 111.572 15.8599 111.599C23.6037 119.299 33.7691 124.483 45.1001 126.124C47.5579 126.476 50.0427 126.701 52.5818 126.701C55.1119 126.701 57.5516 126.72 59.9732 126.377C85.1924 122.779 104.475 101.238 104.475 75.2615H89.6291Z" fill="#EA4335"/>
</g>
</g>
<defs>
<clipPath id="clip0_540_494">
<rect width="105" height="150" fill="white"/>
</clipPath>
</defs>
</svg>
