<svg width="41" height="42" viewBox="0 0 41 42" fill="none" xmlns="http://www.w3.org/2000/svg">
<path fill-rule="evenodd" clip-rule="evenodd" d="M29 16C29 23.1797 23.1797 29 16 29C8.8203 29 3 23.1797 3 16C3 8.8203 8.8203 3 16 3C23.1797 3 29 8.8203 29 16ZM25.6455 28.7668C22.9637 30.7962 19.6224 32 16 32C7.16344 32 0 24.8366 0 16C0 7.16344 7.16344 0 16 0C24.8366 0 32 7.16344 32 16C32 20.133 30.4329 23.9 27.8606 26.7392L40.0607 38.9393C40.6464 39.5251 40.6464 40.4749 40.0607 41.0607C39.4749 41.6464 38.5251 41.6464 37.9393 41.0607L25.6455 28.7668Z" fill="#7B7B7B"/>
</svg>
