<svg width="44" height="44" viewBox="0 0 44 44" fill="none" xmlns="http://www.w3.org/2000/svg">
<path d="M17.316 5.24254L15.893 4.7682L15.893 4.7682L17.316 5.24254ZM16.0193 9.13258L16.6352 10.5003L17.2345 10.2304L17.4423 9.60693L16.0193 9.13258ZM13.5625 10.5536L13.2618 12.0231L13.9067 12.1551L14.4405 11.7697L13.5625 10.5536ZM9.54222 9.73087L9.2415 11.2004L9.2415 11.2004L9.54222 9.73087ZM7.40921 10.6903L6.11017 9.94026L6.11017 9.94026L7.40921 10.6903ZM4.82852 15.1601L6.12756 15.9101L4.82852 15.1601ZM5.06416 17.4871L3.94186 18.4823L3.94186 18.4823L5.06416 17.4871ZM7.78669 20.5573L9.27924 20.7066L9.34458 20.0533L8.90899 19.5621L7.78669 20.5573ZM7.78667 23.393L8.90898 24.3882L9.34455 23.897L9.27923 23.2438L7.78667 23.393ZM5.06416 26.4632L6.18647 27.4584L6.18647 27.4584L5.06416 26.4632ZM4.82852 28.7902L3.52948 29.5402L4.82852 28.7902ZM7.40921 33.2601L8.70824 32.5101L7.40921 33.2601ZM9.54222 34.2194L9.84293 35.689L9.84294 35.689L9.54222 34.2194ZM13.5623 33.3968L14.4403 32.1806L13.9065 31.7953L13.2615 31.9273L13.5623 33.3968ZM16.0196 34.8181L17.4426 34.3437L17.2348 33.7202L16.6355 33.4503L16.0196 34.8181ZM17.316 38.7073L18.739 38.2329L18.739 38.2329L17.316 38.7073ZM26.2721 38.7073L24.8491 38.2329L24.8491 38.2329L26.2721 38.7073ZM27.5686 34.8179L26.9526 33.4502L26.3534 33.72L26.1455 34.3435L27.5686 34.8179ZM30.0255 33.3968L30.3262 31.9273L29.6812 31.7953L29.1474 32.1807L30.0255 33.3968ZM34.0455 34.2194L34.3462 32.7499L34.3462 32.7499L34.0455 34.2194ZM36.1785 33.2601L37.4775 34.0101L37.4775 34.0101L36.1785 33.2601ZM38.7592 28.7902L37.4601 28.0402L37.4601 28.0402L38.7592 28.7902ZM38.5235 26.4632L37.4012 27.4584L37.4012 27.4584L38.5235 26.4632ZM35.8011 23.3931L34.3085 23.2438L34.2432 23.8971L34.6788 24.3883L35.8011 23.3931ZM35.8011 20.5572L34.6788 19.562L34.2432 20.0533L34.3085 20.7065L35.8011 20.5572ZM38.5235 17.4871L37.4012 16.4919L37.4012 16.4919L38.5235 17.4871ZM38.7592 15.1601L37.4601 15.9101L37.4601 15.9101L38.7592 15.1601ZM36.1785 10.6903L37.4775 9.94026L37.4775 9.94026L36.1785 10.6903ZM34.0455 9.73086L34.3462 11.2004L34.3462 11.2004L34.0455 9.73086ZM30.0253 10.5535L29.1472 11.7697L29.681 12.1551L30.326 12.0231L30.0253 10.5535ZM27.5688 9.13277L26.1458 9.60711L26.3536 10.2306L26.9529 10.5005L27.5688 9.13277ZM26.2721 5.24254L27.6951 4.7682L27.6951 4.7682L26.2721 5.24254ZM18.739 5.71689C18.8071 5.51271 18.9981 5.375 19.2134 5.375V2.375C17.7069 2.375 16.3694 3.339 15.893 4.7682L18.739 5.71689ZM17.4423 9.60693L18.739 5.71689L15.893 4.7682L14.5963 8.65824L17.4423 9.60693ZM14.4405 11.7697C15.1241 11.2762 15.8589 10.8499 16.6352 10.5003L15.4034 7.76487C14.4408 8.19837 13.5305 8.72656 12.6845 9.33737L14.4405 11.7697ZM9.2415 11.2004L13.2618 12.0231L13.8632 9.08401L9.84294 8.26132L9.2415 11.2004ZM8.70824 11.4403C8.81585 11.2539 9.03065 11.1573 9.2415 11.2004L9.84294 8.26132C8.36702 7.95929 6.86342 8.63559 6.11017 9.94026L8.70824 11.4403ZM6.12756 15.9101L8.70824 11.4403L6.11017 9.94026L3.52948 14.4101L6.12756 15.9101ZM6.18647 16.4919C6.04368 16.3308 6.01995 16.0965 6.12756 15.9101L3.52948 14.4101C2.77623 15.7148 2.94234 17.3551 3.94186 18.4823L6.18647 16.4919ZM8.90899 19.5621L6.18647 16.4919L3.94186 18.4823L6.66438 21.5525L8.90899 19.5621ZM9.21617 21.9753C9.21617 21.5466 9.23756 21.1234 9.27924 20.7066L6.29414 20.408C6.24254 20.9239 6.21617 21.4467 6.21617 21.9753H9.21617ZM9.27923 23.2438C9.23755 22.827 9.21617 22.4039 9.21617 21.9753H6.21617C6.21617 22.5037 6.24254 23.0265 6.29412 23.5423L9.27923 23.2438ZM6.18647 27.4584L8.90898 24.3882L6.66437 22.3978L3.94186 25.468L6.18647 27.4584ZM6.12756 28.0402C6.01995 27.8538 6.04368 27.6195 6.18647 27.4584L3.94186 25.468C2.94234 26.5952 2.77623 28.2355 3.52948 29.5402L6.12756 28.0402ZM8.70824 32.5101L6.12756 28.0402L3.52948 29.5402L6.11017 34.0101L8.70824 32.5101ZM9.2415 32.7499C9.03065 32.793 8.81585 32.6964 8.70824 32.5101L6.11017 34.0101C6.86342 35.3147 8.36701 35.991 9.84293 35.689L9.2415 32.7499ZM13.2615 31.9273L9.24149 32.7499L9.84294 35.689L13.863 34.8664L13.2615 31.9273ZM16.6355 33.4503C15.859 33.1007 15.1241 32.6743 14.4403 32.1806L12.6842 34.613C13.5305 35.2239 14.4409 35.7522 15.4037 36.1858L16.6355 33.4503ZM18.739 38.2329L17.4426 34.3437L14.5966 35.2924L15.893 39.1816L18.739 38.2329ZM19.2134 38.5748C18.9981 38.5748 18.8071 38.4371 18.739 38.2329L15.893 39.1816C16.3694 40.6108 17.7069 41.5748 19.2134 41.5748V38.5748ZM24.3747 38.5748H19.2134V41.5748H24.3747V38.5748ZM24.8491 38.2329C24.781 38.4371 24.59 38.5748 24.3747 38.5748V41.5748C25.8812 41.5748 27.2187 40.6108 27.6951 39.1816L24.8491 38.2329ZM26.1455 34.3435L24.8491 38.2329L27.6951 39.1816L28.9916 35.2922L26.1455 34.3435ZM29.1474 32.1807C28.4638 32.6742 27.729 33.1006 26.9526 33.4502L28.1845 36.1856C29.1471 35.7521 30.0574 35.2238 30.9035 34.613L29.1474 32.1807ZM34.3462 32.7499L30.3262 31.9273L29.7248 34.8664L33.7448 35.689L34.3462 32.7499ZM34.8795 32.5101C34.7718 32.6964 34.557 32.793 34.3462 32.7499L33.7448 35.689C35.2207 35.991 36.7243 35.3147 37.4775 34.0101L34.8795 32.5101ZM37.4601 28.0402L34.8795 32.5101L37.4775 34.0101L40.0582 29.5402L37.4601 28.0402ZM37.4012 27.4584C37.544 27.6195 37.5677 27.8538 37.4601 28.0402L40.0582 29.5402C40.8115 28.2355 40.6454 26.5952 39.6458 25.468L37.4012 27.4584ZM34.6788 24.3883L37.4012 27.4584L39.6458 25.468L36.9234 22.3979L34.6788 24.3883ZM34.3716 21.9753C34.3716 22.4039 34.3502 22.8271 34.3085 23.2438L37.2936 23.5424C37.3452 23.0266 37.3716 22.5037 37.3716 21.9753H34.3716ZM34.3085 20.7065C34.3502 21.1233 34.3716 21.5466 34.3716 21.9753H37.3716C37.3716 21.4467 37.3452 20.9238 37.2936 20.408L34.3085 20.7065ZM37.4012 16.4919L34.6788 19.562L36.9234 21.5525L39.6458 18.4823L37.4012 16.4919ZM37.4601 15.9101C37.5677 16.0965 37.544 16.3308 37.4012 16.4919L39.6458 18.4823C40.6454 17.3551 40.8115 15.7148 40.0582 14.4101L37.4601 15.9101ZM34.8795 11.4403L37.4601 15.9101L40.0582 14.4101L37.4775 9.94026L34.8795 11.4403ZM34.3462 11.2004C34.557 11.1573 34.7718 11.2539 34.8795 11.4403L37.4775 9.94026C36.7243 8.63559 35.2207 7.95929 33.7448 8.26132L34.3462 11.2004ZM30.326 12.0231L34.3462 11.2004L33.7448 8.26132L29.7245 9.084L30.326 12.0231ZM26.9529 10.5005C27.729 10.85 28.4637 11.2763 29.1472 11.7697L30.9033 9.33736C30.0573 8.72665 29.1472 8.19853 28.1848 7.76508L26.9529 10.5005ZM24.8491 5.71689L26.1458 9.60711L28.9919 8.65843L27.6951 4.7682L24.8491 5.71689ZM24.3747 5.375C24.59 5.375 24.781 5.51271 24.8491 5.71689L27.6951 4.7682C27.2187 3.33901 25.8812 2.375 24.3747 2.375V5.375ZM19.2134 5.375H24.3747V2.375H19.2134V5.375Z" fill="#7B7B7B"/>
<path fill-rule="evenodd" clip-rule="evenodd" d="M21.5 28C25.0899 28 28 25.0899 28 21.5C28 17.9101 25.0899 15 21.5 15C17.9101 15 15 17.9101 15 21.5C15 25.0899 17.9101 28 21.5 28Z" fill="#7B7B7B"/>
</svg>
