<svg width="92" height="41" viewBox="0 0 92 41" fill="none" xmlns="http://www.w3.org/2000/svg">
<path d="M44.1703 40.9893C39.0742 40.9806 33.9862 41.0556 28.9117 40.568C23.8372 40.0804 19.0677 39.2205 14.9488 37.4907C13.726 36.9771 12.4142 36.5212 11.1699 36.0134C5.98201 33.8738 2.18691 31.212 0.483716 27.7769C0.381757 27.6375 0.310228 27.4923 0.270502 27.3441C0.138241 24.1701 -0.442101 20.9962 0.661873 17.8352C0.869711 17.2393 1.23679 16.6594 1.42303 16.0635C2.8914 11.3286 8.19534 8.03196 15.3644 5.44374C18.8005 4.203 22.6118 3.4124 26.5742 2.77328C29.8132 2.24958 32.9065 1.47484 36.3588 1.34788C37.1686 1.31758 37.9783 1.05934 38.6882 0.824175C40.6964 0.144657 42.8828 -0.0198135 45.2014 0.00182713C48.7454 0.0350095 52.2922 0.0249105 55.839 0.00182713C59.4775 -0.0154854 62.8137 0.411558 65.8422 1.5715C67.4784 2.17161 69.2325 2.67426 71.0732 3.07048C73.9614 3.7298 76.5661 4.65025 79.2275 5.50866C81.3059 6.17952 82.8418 7.19375 84.0456 8.33782C85.0848 9.32752 86.1321 10.3187 87.3116 11.2593C88.2779 12.0326 88.8043 12.891 89.3441 13.748C89.9298 14.68 90.3671 15.6365 91.266 16.5079C91.7553 16.9743 92.0005 17.5026 91.9758 18.0372C91.8301 20.9082 92.3969 23.7864 91.3389 26.6502C90.9745 27.6413 90.4589 28.5704 89.525 29.4115C87.1956 31.5107 84.3614 33.353 80.4773 34.7495C74.9304 36.7362 69.3484 38.6449 63.0296 39.8885C59.7138 40.56 56.2117 40.931 52.6674 40.9864C49.844 41.0152 47.0072 40.9893 44.1703 40.9893Z" fill="#809BC3" fill-opacity="0.7"/>
</svg>
