<svg width="556" height="158" viewBox="0 0 556 158" fill="none" xmlns="http://www.w3.org/2000/svg">
<path d="M81 25L88.7647 33L97 25" stroke="white" stroke-width="2"/>
<path d="M7.686 105.488C6.954 106.148 5.856 106.478 4.392 106.478C2.928 106.478 1.698 106.214 0.702 105.686V103.94C1.854 104.444 3.024 104.696 4.212 104.696C5.784 104.696 6.57 104.096 6.57 102.896C6.57 102.392 6.438 102.014 6.174 101.762C5.922 101.51 5.454 101.276 4.77 101.06L3.6 100.736C2.676 100.472 1.974 100.07 1.494 99.53C1.026 98.99 0.792 98.222 0.792 97.226C0.792 96.146 1.14 95.294 1.836 94.67C2.544 94.034 3.576 93.716 4.932 93.716C6.216 93.716 7.278 93.938 8.118 94.382V96.11C7.146 95.702 6.096 95.498 4.968 95.498C4.32 95.498 3.822 95.63 3.474 95.894C3.126 96.158 2.952 96.536 2.952 97.028C2.952 97.52 3.06 97.892 3.276 98.144C3.504 98.384 3.924 98.588 4.536 98.756L5.688 99.116C6.744 99.416 7.524 99.83 8.028 100.358C8.544 100.874 8.802 101.648 8.802 102.68C8.802 103.88 8.43 104.816 7.686 105.488ZM13.5581 106.424C11.6861 106.424 10.7501 105.524 10.7501 103.724V96.992H12.8201V103.328C12.8201 103.844 12.9281 104.21 13.1441 104.426C13.3721 104.642 13.7681 104.75 14.3321 104.75C14.8961 104.75 15.5861 104.564 16.4021 104.192V96.992H18.4721V106.262H16.6721L16.4921 105.452H16.4021C15.5021 106.1 14.5541 106.424 13.5581 106.424ZM20.8939 106.262V96.992H22.8919V97.82H22.9639C23.8759 97.16 24.8899 96.83 26.0059 96.83C26.9179 96.83 27.5959 97.034 28.0399 97.442C28.4839 97.838 28.7059 98.486 28.7059 99.386V106.262H26.6179V99.872C26.6179 99.392 26.5099 99.056 26.2939 98.864C26.0779 98.66 25.6639 98.558 25.0519 98.558C24.3559 98.558 23.6599 98.726 22.9639 99.062V106.262H20.8939Z" fill="#D8D8D8"/>
<path d="M89.348 106.262V93.914H92.462L95.468 103.22H95.522L98.528 93.914H101.624V106.262H99.41V96.668H99.338L96.242 106.262H94.424L91.346 96.668H91.292V106.262H89.348ZM108.154 106.424C106.75 106.424 105.664 106.022 104.896 105.218C104.14 104.402 103.762 103.268 103.762 101.816V101.528C103.762 100.064 104.164 98.918 104.968 98.09C105.772 97.25 106.84 96.83 108.172 96.83C109.564 96.83 110.638 97.238 111.394 98.054C112.162 98.858 112.546 99.998 112.546 101.474V101.726C112.546 103.19 112.144 104.342 111.34 105.182C110.536 106.01 109.474 106.424 108.154 106.424ZM108.19 104.858C109.654 104.858 110.386 103.874 110.386 101.906V101.456C110.386 100.328 110.182 99.536 109.774 99.08C109.378 98.624 108.832 98.396 108.136 98.396C107.416 98.396 106.858 98.648 106.462 99.152C106.078 99.656 105.886 100.4 105.886 101.384V101.816C105.886 102.932 106.09 103.718 106.498 104.174C106.906 104.63 107.47 104.858 108.19 104.858ZM114.462 106.262V96.992H116.46V97.82H116.532C117.444 97.16 118.458 96.83 119.574 96.83C120.486 96.83 121.164 97.034 121.608 97.442C122.052 97.838 122.274 98.486 122.274 99.386V106.262H120.186V99.872C120.186 99.392 120.078 99.056 119.862 98.864C119.646 98.66 119.232 98.558 118.62 98.558C117.924 98.558 117.228 98.726 116.532 99.062V106.262H114.462Z" fill="#D8D8D8"/>
<path d="M185.544 106.262V95.66H181.998V93.914H191.268V95.66H187.758V106.262H185.544ZM195.773 106.424C193.901 106.424 192.965 105.524 192.965 103.724V96.992H195.035V103.328C195.035 103.844 195.143 104.21 195.359 104.426C195.587 104.642 195.983 104.75 196.547 104.75C197.111 104.75 197.801 104.564 198.617 104.192V96.992H200.687V106.262H198.887L198.707 105.452H198.617C197.717 106.1 196.769 106.424 195.773 106.424ZM207.177 106.424C205.665 106.424 204.519 106.016 203.739 105.2C202.971 104.384 202.587 103.232 202.587 101.744V101.492C202.587 99.992 202.983 98.846 203.775 98.054C204.579 97.25 205.599 96.848 206.835 96.848C208.179 96.848 209.169 97.22 209.805 97.964C210.441 98.708 210.759 99.83 210.759 101.33V102.194H204.711C204.771 103.13 205.035 103.802 205.503 104.21C205.983 104.606 206.679 104.804 207.591 104.804C208.611 104.804 209.565 104.576 210.453 104.12V105.56C209.577 106.136 208.485 106.424 207.177 106.424ZM206.799 98.378C205.527 98.378 204.831 99.176 204.711 100.772H208.653C208.653 99.92 208.497 99.308 208.185 98.936C207.885 98.564 207.423 98.378 206.799 98.378Z" fill="#D8D8D8"/>
<path d="M272.912 106.262L269.834 93.914H272.084L274.19 103.058H274.244L276.764 93.914H278.564L281.048 103.058H281.102L283.226 93.914H285.224L282.2 106.262H280.004L277.592 97.298H277.538L275.09 106.262H272.912ZM290.989 106.424C289.477 106.424 288.331 106.016 287.551 105.2C286.783 104.384 286.399 103.232 286.399 101.744V101.492C286.399 99.992 286.795 98.846 287.587 98.054C288.391 97.25 289.411 96.848 290.647 96.848C291.991 96.848 292.981 97.22 293.617 97.964C294.253 98.708 294.571 99.83 294.571 101.33V102.194H288.523C288.583 103.13 288.847 103.802 289.315 104.21C289.795 104.606 290.491 104.804 291.403 104.804C292.423 104.804 293.377 104.576 294.265 104.12V105.56C293.389 106.136 292.297 106.424 290.989 106.424ZM290.611 98.378C289.339 98.378 288.643 99.176 288.523 100.772H292.465C292.465 99.92 292.309 99.308 291.997 98.936C291.697 98.564 291.235 98.378 290.611 98.378ZM296.483 106.262V96.992H298.481V97.82H298.553C299.465 97.16 300.479 96.83 301.595 96.83C302.507 96.83 303.185 97.034 303.629 97.442C304.073 97.838 304.295 98.486 304.295 99.386V106.262H302.207V99.872C302.207 99.392 302.099 99.056 301.883 98.864C301.667 98.66 301.253 98.558 300.641 98.558C299.945 98.558 299.249 98.726 298.553 99.062V106.262H296.483Z" fill="#D8D8D8"/>
<path d="M368.011 106.262V95.66H364.465V93.914H373.735V95.66H370.225V106.262H368.011ZM375.487 106.262V93.104H377.557V97.784H377.647C378.511 97.148 379.495 96.83 380.599 96.83C381.511 96.83 382.189 97.034 382.633 97.442C383.077 97.838 383.299 98.486 383.299 99.386V106.262H381.211V99.872C381.211 99.392 381.103 99.056 380.887 98.864C380.671 98.66 380.257 98.558 379.645 98.558C378.949 98.558 378.253 98.726 377.557 99.062V106.262H375.487ZM385.699 106.262V96.992H387.697V98.072H387.769C388.021 97.736 388.369 97.46 388.813 97.244C389.257 97.028 389.719 96.92 390.199 96.92C390.487 96.92 390.679 96.938 390.775 96.974V98.81C390.547 98.774 390.295 98.756 390.019 98.756C389.155 98.756 388.405 98.96 387.769 99.368V106.262H385.699Z" fill="#D8D8D8"/>
<path d="M450.461 106.262V93.914H458.039V95.66H452.675V99.35H456.851V101.06H452.675V106.262H450.461ZM460.001 106.262V96.992H461.999V98.072H462.071C462.323 97.736 462.671 97.46 463.115 97.244C463.559 97.028 464.021 96.92 464.501 96.92C464.789 96.92 464.981 96.938 465.077 96.974V98.81C464.849 98.774 464.597 98.756 464.321 98.756C463.457 98.756 462.707 98.96 462.071 99.368V106.262H460.001ZM466.822 106.262V96.992H468.91V106.262H466.822ZM466.822 95.462V93.572H468.928V95.462H466.822Z" fill="#D8D8D8"/>
<path d="M535.982 105.488C535.25 106.148 534.152 106.478 532.688 106.478C531.224 106.478 529.994 106.214 528.998 105.686V103.94C530.15 104.444 531.32 104.696 532.508 104.696C534.08 104.696 534.866 104.096 534.866 102.896C534.866 102.392 534.734 102.014 534.47 101.762C534.218 101.51 533.75 101.276 533.066 101.06L531.896 100.736C530.972 100.472 530.27 100.07 529.79 99.53C529.322 98.99 529.088 98.222 529.088 97.226C529.088 96.146 529.436 95.294 530.132 94.67C530.84 94.034 531.872 93.716 533.228 93.716C534.512 93.716 535.574 93.938 536.414 94.382V96.11C535.442 95.702 534.392 95.498 533.264 95.498C532.616 95.498 532.118 95.63 531.77 95.894C531.422 96.158 531.248 96.536 531.248 97.028C531.248 97.52 531.356 97.892 531.572 98.144C531.8 98.384 532.22 98.588 532.832 98.756L533.984 99.116C535.04 99.416 535.82 99.83 536.324 100.358C536.84 100.874 537.098 101.648 537.098 102.68C537.098 103.88 536.726 104.816 535.982 105.488ZM541.422 106.424C540.558 106.424 539.868 106.202 539.352 105.758C538.836 105.314 538.578 104.66 538.578 103.796C538.578 102.236 539.568 101.312 541.548 101.024L543.726 100.772V100.07C543.726 99.458 543.57 99.05 543.258 98.846C542.958 98.63 542.406 98.522 541.602 98.522C540.846 98.522 540.096 98.606 539.352 98.774V97.352C540.204 97.016 541.224 96.848 542.412 96.848C544.668 96.848 545.796 97.766 545.796 99.602V106.262H544.086L543.924 105.506H543.816C543.288 106.118 542.49 106.424 541.422 106.424ZM542.052 104.966C542.772 104.966 543.33 104.78 543.726 104.408V102.122L542.016 102.302C541.548 102.338 541.194 102.464 540.954 102.68C540.726 102.896 540.612 103.232 540.612 103.688C540.612 104.108 540.738 104.426 540.99 104.642C541.254 104.858 541.608 104.966 542.052 104.966ZM551.373 106.37C549.621 106.37 548.745 105.572 548.745 103.976V98.612H547.449V96.992H548.745V94.814H550.779V96.992H552.993V98.612H550.779V103.688C550.779 104.084 550.869 104.36 551.049 104.516C551.229 104.672 551.559 104.75 552.039 104.75C552.399 104.75 552.753 104.702 553.101 104.606V105.992C552.597 106.244 552.021 106.37 551.373 106.37Z" fill="#D8D8D8"/>
<path d="M9.02461 143.7C8.31661 143.7 7.62661 143.616 6.95461 143.448C6.29461 143.28 5.77861 143.076 5.40661 142.836L5.76661 141.234C6.07861 141.426 6.51661 141.594 7.08061 141.738C7.65661 141.87 8.17861 141.936 8.64661 141.936C9.48661 141.936 10.1346 141.762 10.5906 141.414C11.0466 141.066 11.2746 140.55 11.2746 139.866C11.2746 138.642 10.4226 138.018 8.71861 137.994L7.44061 137.958V136.356L8.57461 136.338C9.29461 136.314 9.87061 136.146 10.3026 135.834C10.7346 135.51 10.9506 135.066 10.9506 134.502C10.9506 133.374 10.2186 132.81 8.75461 132.81C7.93861 132.81 7.06261 133.026 6.12661 133.458L5.87461 131.82C6.25861 131.604 6.78061 131.424 7.44061 131.28C8.10061 131.124 8.73061 131.046 9.33061 131.046C10.4946 131.046 11.4246 131.316 12.1206 131.856C12.8166 132.384 13.1646 133.134 13.1646 134.106C13.1646 135.51 12.4266 136.47 10.9506 136.986C12.7026 137.334 13.5786 138.342 13.5786 140.01C13.5786 141.15 13.1706 142.05 12.3546 142.71C11.5386 143.37 10.4286 143.7 9.02461 143.7ZM20.187 143.736C18.747 143.736 17.589 143.25 16.713 142.278C15.837 141.294 15.399 139.806 15.399 137.814V137.04C15.399 135.972 15.525 135.042 15.777 134.25C16.041 133.458 16.401 132.834 16.857 132.378C17.313 131.922 17.817 131.586 18.369 131.37C18.933 131.154 19.545 131.046 20.205 131.046C21.609 131.046 22.749 131.526 23.625 132.486C24.513 133.446 24.957 134.946 24.957 136.986V137.76C24.957 139.8 24.513 141.306 23.625 142.278C22.737 143.25 21.591 143.736 20.187 143.736ZM20.187 142.044C21.027 142.044 21.651 141.72 22.059 141.072C22.467 140.412 22.671 139.356 22.671 137.904V136.986C22.671 134.166 21.849 132.756 20.205 132.756C19.353 132.756 18.723 133.086 18.315 133.746C17.907 134.394 17.703 135.432 17.703 136.86V137.814C17.703 140.634 18.531 142.044 20.187 142.044Z" fill="white"/>
<path d="M105.929 143.592V133.44L103.859 133.854V132.558L106.991 131.154H108.161V143.592H105.929Z" fill="white"/>
<path d="M287.98 143.7C287.272 143.7 286.582 143.616 285.91 143.448C285.25 143.28 284.734 143.076 284.362 142.836L284.722 141.234C285.034 141.426 285.472 141.594 286.036 141.738C286.612 141.87 287.134 141.936 287.602 141.936C288.442 141.936 289.09 141.762 289.546 141.414C290.002 141.066 290.23 140.55 290.23 139.866C290.23 138.642 289.378 138.018 287.674 137.994L286.396 137.958V136.356L287.53 136.338C288.25 136.314 288.826 136.146 289.258 135.834C289.69 135.51 289.906 135.066 289.906 134.502C289.906 133.374 289.174 132.81 287.71 132.81C286.894 132.81 286.018 133.026 285.082 133.458L284.83 131.82C285.214 131.604 285.736 131.424 286.396 131.28C287.056 131.124 287.686 131.046 288.286 131.046C289.45 131.046 290.38 131.316 291.076 131.856C291.772 132.384 292.12 133.134 292.12 134.106C292.12 135.51 291.382 136.47 289.906 136.986C291.658 137.334 292.534 138.342 292.534 140.01C292.534 141.15 292.126 142.05 291.31 142.71C290.494 143.37 289.384 143.7 287.98 143.7Z" fill="white"/>
<path d="M192.957 143.52V142.224L195.315 139.74C196.359 138.636 197.133 137.724 197.637 137.004C198.141 136.272 198.393 135.558 198.393 134.862C198.393 134.13 198.195 133.602 197.799 133.278C197.415 132.954 196.821 132.792 196.017 132.792C195.225 132.792 194.373 133.068 193.461 133.62L193.101 131.982C194.169 131.358 195.339 131.046 196.611 131.046C197.943 131.046 198.957 131.352 199.653 131.964C200.349 132.576 200.697 133.446 200.697 134.574C200.697 135.09 200.601 135.612 200.409 136.14C200.229 136.656 199.941 137.184 199.545 137.724C199.149 138.252 198.801 138.684 198.501 139.02C198.213 139.344 197.817 139.77 197.313 140.298L195.855 141.792H200.805V143.52H192.957Z" fill="white"/>
<path d="M378.679 143.718V141.198H373.009V139.902L379.255 131.172H380.767V139.56H382.585V141.198H380.767V143.718H378.679ZM375.421 139.56H378.697V134.916L375.421 139.56Z" fill="white"/>
<path d="M542.293 143.736C540.817 143.736 539.689 143.256 538.909 142.296C538.141 141.324 537.757 139.98 537.757 138.264V137.382C537.757 135.21 538.243 133.614 539.215 132.594C540.187 131.574 541.465 131.064 543.049 131.064C544.189 131.064 545.149 131.292 545.929 131.748L545.497 133.368C545.245 133.236 544.891 133.116 544.435 133.008C543.979 132.888 543.559 132.828 543.175 132.828C542.191 132.828 541.429 133.134 540.889 133.746C540.349 134.346 540.037 135.396 539.953 136.896C540.793 136.176 541.753 135.816 542.833 135.816C543.925 135.816 544.807 136.146 545.479 136.806C546.163 137.454 546.505 138.354 546.505 139.506C546.505 140.73 546.133 141.744 545.389 142.548C544.645 143.34 543.613 143.736 542.293 143.736ZM542.239 142.098C542.899 142.098 543.415 141.888 543.787 141.468C544.171 141.036 544.363 140.436 544.363 139.668C544.363 138.156 543.637 137.4 542.185 137.4C541.765 137.4 541.351 137.52 540.943 137.76C540.535 138 540.211 138.282 539.971 138.606V138.714C539.971 140.97 540.727 142.098 542.239 142.098Z" fill="white"/>
<circle cx="460.945" cy="138.11" r="19.5842" fill="white"/>
<path d="M460.211 145.638C458.637 145.638 457.337 145.324 456.311 144.698L456.751 142.818C457.671 143.364 458.617 143.638 459.591 143.638C460.551 143.638 461.297 143.418 461.831 142.978C462.377 142.524 462.651 141.884 462.651 141.058C462.651 139.418 461.664 138.598 459.691 138.598C458.824 138.598 457.897 138.844 456.911 139.338L457.411 131.798H464.571V133.718H459.291L459.031 137.058C459.644 136.898 460.217 136.818 460.751 136.818C462.151 136.818 463.237 137.178 464.011 137.898C464.797 138.618 465.191 139.691 465.191 141.118C465.191 142.424 464.737 143.504 463.831 144.358C462.937 145.211 461.731 145.638 460.211 145.638Z" fill="#155EE9"/>
<path d="M3.96 71.46C2.556 71.46 1.416 71.16 0.54 70.56L0.846 69.3C1.206 69.528 1.644 69.726 2.16 69.894C2.676 70.062 3.162 70.146 3.618 70.146C4.554 70.146 5.286 69.906 5.814 69.426C6.342 68.934 6.606 68.268 6.606 67.428C6.606 65.772 5.634 64.944 3.69 64.944C2.886 64.944 2.046 65.142 1.17 65.538L1.602 59.13H7.776V60.444H2.862L2.628 63.972C3.252 63.804 3.816 63.72 4.32 63.72C5.568 63.72 6.534 64.032 7.218 64.656C7.902 65.28 8.244 66.216 8.244 67.464C8.244 68.592 7.854 69.54 7.074 70.308C6.294 71.076 5.256 71.46 3.96 71.46ZM23.3272 73.242H12.0052V69.84H21.1492V68.778H12.0052V67.59H22.7332V70.938H13.6072V72.036H23.3272V73.242ZM17.4592 58.59C18.1912 59.058 18.5572 59.694 18.5572 60.498C18.5572 61.302 18.1912 61.938 17.4592 62.406C16.7272 62.862 15.7912 63.09 14.6512 63.09C13.5112 63.09 12.5692 62.856 11.8252 62.388C11.0932 61.92 10.7272 61.284 10.7272 60.48C10.7272 59.7 11.0992 59.076 11.8432 58.608C12.5872 58.128 13.5232 57.888 14.6512 57.888C15.7912 57.888 16.7272 58.122 17.4592 58.59ZM22.7332 66.96H21.1672V66.33H17.8012V65.196H21.1672V57.528H22.7332V66.96ZM15.3712 66.978H13.7872V65.052C11.7592 65.1 10.4332 65.13 9.80916 65.142L9.57516 63.828C11.6152 63.828 13.3552 63.798 14.7952 63.738C16.9912 63.642 18.6772 63.522 19.8532 63.378L19.9972 64.566C19.0012 64.698 17.4592 64.83 15.3712 64.962V66.978ZM16.3072 61.488C16.7392 61.26 16.9552 60.93 16.9552 60.498C16.9552 60.066 16.7452 59.73 16.3252 59.49C15.9052 59.25 15.3472 59.13 14.6512 59.13C13.9672 59.13 13.4152 59.25 12.9952 59.49C12.5752 59.73 12.3652 60.066 12.3652 60.498C12.3652 60.93 12.5752 61.26 12.9952 61.488C13.4152 61.716 13.9672 61.83 14.6512 61.83C15.3352 61.83 15.8872 61.716 16.3072 61.488ZM39.3099 65.556L38.4819 66.78C37.7739 66.576 37.0539 66.192 36.3219 65.628C35.5899 65.052 35.0559 64.428 34.7199 63.756C34.4559 64.476 33.9579 65.172 33.2259 65.844C32.4939 66.504 31.6959 66.984 30.8319 67.284L29.9499 66.042C31.0299 65.706 31.9419 65.148 32.6859 64.368C33.4419 63.576 33.8439 62.688 33.8919 61.704H30.3819V60.408H38.9499V61.704H35.5299C35.6019 62.64 36.0039 63.456 36.7359 64.152C37.4799 64.836 38.3379 65.304 39.3099 65.556ZM43.8639 72.144L43.0359 73.422C42.0039 73.23 40.9479 72.786 39.8679 72.09C38.7879 71.406 38.0919 70.728 37.7799 70.056C37.5039 70.74 36.8379 71.418 35.7819 72.09C34.7259 72.774 33.6279 73.218 32.4879 73.422L31.6779 72.162C33.0339 72.006 34.2579 71.526 35.3499 70.722C36.4419 69.906 36.9879 68.958 36.9879 67.878V67.464H38.6259V67.878C38.6259 68.598 38.9019 69.276 39.4539 69.912C40.0059 70.548 40.6719 71.052 41.4519 71.424C42.2439 71.796 43.0479 72.036 43.8639 72.144ZM42.9279 57.528V68.256H41.3259V63.918H38.4279V62.604H41.3259V57.528H42.9279ZM36.8619 59.166H32.5059V57.888H36.8619V59.166ZM63.8966 63.702L63.1766 64.98C61.9886 64.788 60.8246 64.368 59.6846 63.72C58.5566 63.072 57.8006 62.388 57.4166 61.668C57.0686 62.412 56.3426 63.114 55.2386 63.774C54.1466 64.422 52.9766 64.842 51.7286 65.034L50.9726 63.774C52.3046 63.63 53.5466 63.198 54.6986 62.478C55.8506 61.746 56.4806 60.906 56.5886 59.958H51.6386V58.644H63.2486V59.958H58.2806C58.4006 60.894 59.0426 61.722 60.2066 62.442C61.3826 63.15 62.6126 63.57 63.8966 63.702ZM58.1906 73.26H56.5886V67.752H50.3246V66.456H64.5266V67.752H58.1906V73.26ZM75.0788 68.94L74.1428 70.146C73.3388 69.738 72.5708 69.138 71.8388 68.346C71.1188 67.554 70.6388 66.762 70.3988 65.97C70.1828 66.798 69.7028 67.65 68.9588 68.526C68.2148 69.402 67.4048 70.068 66.5288 70.524L65.5028 69.372C66.6788 68.772 67.6508 67.908 68.4188 66.78C69.1868 65.652 69.5708 64.374 69.5708 62.946V62.55H66.0608V61.254H74.6828V62.55H71.2088V62.928C71.2088 64.344 71.5808 65.58 72.3248 66.636C73.0688 67.68 73.9868 68.448 75.0788 68.94ZM80.5148 65.268H78.0488V73.26H76.4648V57.528H78.0488V63.936H80.5148V65.268ZM72.6848 59.832H68.0408V58.518H72.6848V59.832ZM89.5316 71.244V60.516H85.9496V59.148H94.6796V60.516H91.0976V71.244H89.5316ZM99.8492 71.406C98.5652 71.406 97.5632 71.016 96.8432 70.236C96.1352 69.444 95.7812 68.352 95.7812 66.96V66.654C95.7812 65.262 96.1532 64.158 96.8972 63.342C97.6412 62.526 98.6312 62.118 99.8672 62.118C101.151 62.118 102.153 62.514 102.873 63.306C103.593 64.098 103.953 65.196 103.953 66.6V66.888C103.953 68.28 103.575 69.384 102.819 70.2C102.075 71.004 101.085 71.406 99.8492 71.406ZM99.8852 70.146C100.677 70.146 101.283 69.882 101.703 69.354C102.135 68.814 102.351 68.046 102.351 67.05V66.564C102.351 64.44 101.511 63.378 99.8312 63.378C99.0512 63.378 98.4452 63.648 98.0132 64.188C97.5812 64.728 97.3652 65.496 97.3652 66.492V66.996C97.3652 69.096 98.2052 70.146 99.8852 70.146ZM105.561 66.06V64.746H111.483V66.06H105.561ZM116.892 71.406C116.436 71.406 115.998 71.334 115.578 71.19C115.17 71.034 114.78 70.794 114.408 70.47C114.048 70.146 113.754 69.696 113.526 69.12C113.31 68.532 113.202 67.842 113.202 67.05V66.798C113.202 65.238 113.562 64.068 114.282 63.288C115.014 62.508 115.98 62.118 117.18 62.118C118.056 62.118 118.818 62.304 119.466 62.676V58.356H120.996V71.244H119.7L119.556 70.524H119.466C118.878 71.112 118.02 71.406 116.892 71.406ZM117.396 70.146C118.2 70.146 118.89 69.912 119.466 69.444V63.954C119.034 63.606 118.338 63.432 117.378 63.432C116.526 63.432 115.884 63.678 115.452 64.17C115.02 64.662 114.804 65.472 114.804 66.6V66.996C114.804 68.136 115.026 68.946 115.47 69.426C115.926 69.906 116.568 70.146 117.396 70.146ZM126.955 71.406C125.671 71.406 124.669 71.016 123.949 70.236C123.241 69.444 122.887 68.352 122.887 66.96V66.654C122.887 65.262 123.259 64.158 124.003 63.342C124.747 62.526 125.737 62.118 126.973 62.118C128.257 62.118 129.259 62.514 129.979 63.306C130.699 64.098 131.059 65.196 131.059 66.6V66.888C131.059 68.28 130.681 69.384 129.925 70.2C129.181 71.004 128.191 71.406 126.955 71.406ZM126.991 70.146C127.783 70.146 128.389 69.882 128.809 69.354C129.241 68.814 129.457 68.046 129.457 67.05V66.564C129.457 64.44 128.617 63.378 126.937 63.378C126.157 63.378 125.551 63.648 125.119 64.188C124.687 64.728 124.471 65.496 124.471 66.492V66.996C124.471 69.096 125.311 70.146 126.991 70.146ZM137.917 71.244V59.148H139.501V69.894H144.829V71.244H137.917ZM146.614 71.244V62.298H148.162V71.244H146.614ZM146.614 60.534V58.932H148.18V60.534H146.614ZM152.96 71.388C151.748 71.388 150.782 71.178 150.062 70.758V69.552C150.986 69.924 151.874 70.11 152.726 70.11C154.01 70.11 154.652 69.696 154.652 68.868C154.652 68.508 154.538 68.226 154.31 68.022C154.094 67.806 153.716 67.626 153.176 67.482L152.33 67.248C151.61 67.056 151.058 66.774 150.674 66.402C150.29 66.03 150.098 65.484 150.098 64.764C150.098 63.948 150.356 63.306 150.872 62.838C151.4 62.358 152.186 62.118 153.23 62.118C154.166 62.118 154.982 62.292 155.678 62.64V63.882C155.006 63.57 154.208 63.414 153.284 63.414C152.132 63.414 151.556 63.81 151.556 64.602C151.556 64.962 151.652 65.232 151.844 65.412C152.036 65.592 152.372 65.748 152.852 65.88L153.698 66.096C154.598 66.336 155.228 66.642 155.588 67.014C155.96 67.386 156.146 67.956 156.146 68.724C156.146 69.588 155.864 70.248 155.3 70.704C154.736 71.16 153.956 71.388 152.96 71.388ZM160.901 71.334C159.293 71.334 158.489 70.602 158.489 69.138V63.576H157.211V62.298H158.489V60.174H160.019V62.298H162.269V63.576H160.019V68.922C160.019 69.354 160.109 69.66 160.289 69.84C160.481 70.008 160.823 70.092 161.315 70.092C161.687 70.092 162.065 70.044 162.449 69.948V70.992C161.921 71.22 161.405 71.334 160.901 71.334ZM181.303 65.952H179.701V57.528H181.303V65.952ZM181.321 73.062H171.097V66.816H172.681V68.67H179.719V66.798H181.321V73.062ZM179.719 71.784V69.93H172.681V71.784H179.719ZM169.999 59.328C170.779 58.62 171.739 58.266 172.879 58.266C174.019 58.266 174.973 58.614 175.741 59.31C176.509 59.994 176.893 60.888 176.893 61.992C176.893 63.096 176.509 63.984 175.741 64.656C174.985 65.328 174.031 65.664 172.879 65.664C171.727 65.664 170.767 65.328 169.999 64.656C169.231 63.984 168.847 63.102 168.847 62.01C168.847 60.918 169.231 60.024 169.999 59.328ZM172.879 59.652C172.183 59.652 171.601 59.868 171.133 60.3C170.677 60.72 170.449 61.278 170.449 61.974C170.449 62.67 170.677 63.228 171.133 63.648C171.601 64.068 172.183 64.278 172.879 64.278C173.587 64.278 174.163 64.074 174.607 63.666C175.063 63.246 175.291 62.688 175.291 61.992C175.291 61.284 175.063 60.72 174.607 60.3C174.163 59.868 173.587 59.652 172.879 59.652ZM196.859 57.528V73.26H195.275V57.528H196.859ZM193.799 67.32L193.997 68.616C193.145 68.832 191.969 69.006 190.469 69.138C188.981 69.27 187.619 69.348 186.383 69.372H184.907V59.166H186.509V68.004C187.637 68.004 188.915 67.944 190.343 67.824C191.783 67.692 192.935 67.524 193.799 67.32ZM201.795 68.094H202.443C205.251 68.094 207.435 67.926 208.995 67.59L209.175 68.886C207.543 69.222 205.143 69.402 201.975 69.426H200.211V59.184H207.645V60.498H201.795V68.094ZM211.695 57.528V63.666H214.143V64.998H211.695V73.26H210.111V57.528H211.695ZM215.228 71.658V69.894H216.974V71.658H215.228Z" fill="#E2E2E2"/>
<path d="M2.835 37.565V13.555H8.89L14.735 31.65H14.84L20.685 13.555H26.705V37.565H22.4V18.91H22.26L16.24 37.565H12.705L6.72 18.91H6.615V37.565H2.835ZM36.3921 37.88C34.7121 37.88 33.3704 37.4483 32.3671 36.585C31.3637 35.7217 30.8621 34.45 30.8621 32.77C30.8621 29.7367 32.7871 27.94 36.6371 27.38L40.8721 26.89V25.525C40.8721 24.335 40.5687 23.5417 39.9621 23.145C39.3787 22.725 38.3054 22.515 36.7421 22.515C35.2721 22.515 33.8137 22.6783 32.3671 23.005V20.24C34.0237 19.5867 36.0071 19.26 38.3171 19.26C42.7037 19.26 44.8971 21.045 44.8971 24.615V37.565H41.5721L41.2571 36.095H41.0471C40.0204 37.285 38.4687 37.88 36.3921 37.88ZM37.6171 35.045C39.0171 35.045 40.1021 34.6833 40.8721 33.96V29.515L37.5471 29.865C36.6371 29.935 35.9487 30.18 35.4821 30.6C35.0387 31.02 34.8171 31.6733 34.8171 32.56C34.8171 33.3767 35.0621 33.995 35.5521 34.415C36.0654 34.835 36.7537 35.045 37.6171 35.045ZM51.6471 42.745C50.5038 42.745 49.6288 42.5467 49.0221 42.15V39.455C49.5355 39.5717 50.1188 39.63 50.7721 39.63C51.6588 39.63 52.3588 39.4783 52.8721 39.175C53.4088 38.8717 53.8288 38.3117 54.1321 37.495L54.6221 36.235L47.8321 19.54H52.1021L56.6521 31.23H56.7921L60.9921 19.54H64.8771L57.9121 38.055C57.3288 39.7583 56.5588 40.96 55.6021 41.66C54.6455 42.3833 53.3271 42.745 51.6471 42.745Z" fill="white"/>
<g opacity="0.5">
<circle cx="546.476" cy="65.5238" r="9.52381" fill="white"/>
<circle cx="546.476" cy="65.5238" r="9.52381" fill="white" fill-opacity="0.6"/>
</g>
<g opacity="0.5">
<circle cx="517.524" cy="65.5238" r="9.52381" fill="white"/>
<circle cx="517.524" cy="65.5238" r="9.52381" fill="white" fill-opacity="0.6"/>
</g>
<path d="M520.19 60.5714L513.333 66.019L520.19 70.4762" stroke="#155EE9" stroke-width="2"/>
<path d="M543.048 70.4762L549.905 65.0286L543.048 60.5714" stroke="#155EE9" stroke-width="2"/>
</svg>
