<svg width="241" height="55" viewBox="0 0 241 55" fill="none" xmlns="http://www.w3.org/2000/svg">
<path d="M67.816 20.262V9.84H64.378V7.914H73.828V9.84H70.354V20.262H67.816ZM79.2709 20.424C77.8189 20.424 76.7029 20.022 75.9229 19.218C75.1549 18.402 74.7709 17.25 74.7709 15.762V15.51C74.7709 14.022 75.1849 12.858 76.0129 12.018C76.8409 11.178 77.9329 10.758 79.2889 10.758C80.7289 10.758 81.8389 11.166 82.6189 11.982C83.3989 12.786 83.7889 13.938 83.7889 15.438V15.69C83.7889 17.19 83.3749 18.354 82.5469 19.182C81.7189 20.01 80.6269 20.424 79.2709 20.424ZM79.3069 18.696C80.6749 18.696 81.3589 17.754 81.3589 15.87V15.438C81.3589 14.346 81.1729 13.584 80.8009 13.152C80.4289 12.72 79.9129 12.504 79.2529 12.504C77.8849 12.504 77.2009 13.458 77.2009 15.366V15.762C77.2009 16.842 77.3869 17.604 77.7589 18.048C78.1309 18.48 78.6469 18.696 79.3069 18.696ZM85.255 16.212V14.304H90.385V16.212H85.255ZM95.5494 20.424C95.0574 20.424 94.5954 20.34 94.1634 20.172C93.7434 20.004 93.3474 19.752 92.9754 19.416C92.6154 19.068 92.3274 18.594 92.1114 17.994C91.9074 17.382 91.8054 16.674 91.8054 15.87V15.636C91.8054 13.98 92.1834 12.756 92.9394 11.964C93.6954 11.16 94.7094 10.758 95.9814 10.758C96.8094 10.758 97.5234 10.926 98.1234 11.262V7.104H100.481V20.262H98.4654L98.2674 19.524H98.1774C97.5414 20.124 96.6654 20.424 95.5494 20.424ZM96.4134 18.624C97.0734 18.624 97.6434 18.426 98.1234 18.03V12.936C97.7754 12.672 97.2054 12.54 96.4134 12.54C95.6934 12.54 95.1474 12.762 94.7754 13.206C94.4154 13.638 94.2354 14.382 94.2354 15.438V15.762C94.2354 16.83 94.4214 17.574 94.7934 17.994C95.1654 18.414 95.7054 18.624 96.4134 18.624ZM106.57 20.424C105.118 20.424 104.002 20.022 103.222 19.218C102.454 18.402 102.07 17.25 102.07 15.762V15.51C102.07 14.022 102.484 12.858 103.312 12.018C104.14 11.178 105.232 10.758 106.588 10.758C108.028 10.758 109.138 11.166 109.918 11.982C110.698 12.786 111.088 13.938 111.088 15.438V15.69C111.088 17.19 110.674 18.354 109.846 19.182C109.018 20.01 107.926 20.424 106.57 20.424ZM106.606 18.696C107.974 18.696 108.658 17.754 108.658 15.87V15.438C108.658 14.346 108.472 13.584 108.1 13.152C107.728 12.72 107.212 12.504 106.552 12.504C105.184 12.504 104.5 13.458 104.5 15.366V15.762C104.5 16.842 104.686 17.604 105.058 18.048C105.43 18.48 105.946 18.696 106.606 18.696ZM117.66 20.262V7.914H120.216V18.3H125.292V20.262H117.66ZM126.885 20.262V10.938H129.261V20.262H126.885ZM126.867 9.534V7.518H129.279V9.534H126.867ZM134.03 20.424C132.746 20.424 131.714 20.208 130.934 19.776V18.084C131.834 18.468 132.752 18.66 133.688 18.66C134.864 18.66 135.452 18.324 135.452 17.652C135.452 17.352 135.356 17.124 135.164 16.968C134.972 16.812 134.636 16.686 134.156 16.59L133.292 16.392C132.512 16.236 131.918 15.948 131.51 15.528C131.102 15.108 130.898 14.484 130.898 13.656C130.898 12.756 131.198 12.054 131.798 11.55C132.398 11.034 133.286 10.776 134.462 10.776C135.542 10.776 136.46 10.944 137.216 11.28V12.972C136.34 12.672 135.5 12.522 134.696 12.522C133.64 12.522 133.112 12.846 133.112 13.494C133.112 13.794 133.202 14.016 133.382 14.16C133.562 14.292 133.874 14.4 134.318 14.484L135.2 14.664C136.112 14.856 136.76 15.168 137.144 15.6C137.54 16.02 137.738 16.638 137.738 17.454C137.738 18.426 137.42 19.164 136.784 19.668C136.16 20.172 135.242 20.424 134.03 20.424ZM142.623 20.37C141.735 20.37 141.057 20.178 140.589 19.794C140.121 19.41 139.887 18.774 139.887 17.886V12.684H138.645V10.938H139.887V8.742H142.209V10.938H144.351V12.684H142.209V17.508C142.209 17.904 142.299 18.18 142.479 18.336C142.671 18.492 142.989 18.57 143.433 18.57C143.817 18.57 144.153 18.522 144.441 18.426V19.992C143.961 20.244 143.355 20.37 142.623 20.37Z" fill="#D8D8D8"/>
<path d="M66.26 43.262V30.914H68.816V41.3H73.892V43.262H66.26ZM75.4847 43.262V33.938H77.8607V43.262H75.4847ZM75.4667 32.534V30.518H77.8787V32.534H75.4667ZM79.9655 43.262V30.104H82.3415V43.262H79.9655ZM85.5815 43.262C84.0935 41.066 83.0255 39.458 82.3775 38.438C82.8695 37.706 83.9135 36.212 85.5095 33.956H87.9215L84.8255 38.276C85.4135 39.164 86.5175 40.826 88.1375 43.262H85.5815ZM93.6525 43.424C92.1045 43.424 90.9345 43.016 90.1425 42.2C89.3505 41.384 88.9545 40.22 88.9545 38.708V38.474C88.9545 36.974 89.3565 35.816 90.1605 35C90.9645 34.184 92.0205 33.776 93.3285 33.776C94.7205 33.776 95.7345 34.16 96.3705 34.928C97.0185 35.696 97.3425 36.842 97.3425 38.366V39.23H91.3665C91.4505 40.094 91.7205 40.712 92.1765 41.084C92.6325 41.444 93.3045 41.624 94.1925 41.624C95.1285 41.624 96.0705 41.42 97.0185 41.012V42.56C96.1545 43.136 95.0325 43.424 93.6525 43.424ZM93.2745 35.45C92.7825 35.45 92.3565 35.624 91.9965 35.972C91.6365 36.32 91.4265 36.896 91.3665 37.7H95.0205C95.0205 36.896 94.8765 36.32 94.5885 35.972C94.3005 35.624 93.8625 35.45 93.2745 35.45ZM99.1838 43.262V30.914H101.74V41.3H106.816V43.262H99.1838ZM108.409 43.262V33.938H110.785V43.262H108.409ZM108.391 32.534V30.518H110.803V32.534H108.391ZM116.921 43.424C115.469 43.424 114.353 43.022 113.573 42.218C112.805 41.402 112.421 40.25 112.421 38.762V38.51C112.421 37.022 112.835 35.858 113.663 35.018C114.491 34.178 115.583 33.758 116.939 33.758C118.379 33.758 119.489 34.166 120.269 34.982C121.049 35.786 121.439 36.938 121.439 38.438V38.69C121.439 40.19 121.025 41.354 120.197 42.182C119.369 43.01 118.277 43.424 116.921 43.424ZM116.957 41.696C118.325 41.696 119.009 40.754 119.009 38.87V38.438C119.009 37.346 118.823 36.584 118.451 36.152C118.079 35.72 117.563 35.504 116.903 35.504C115.535 35.504 114.851 36.458 114.851 38.366V38.762C114.851 39.842 115.037 40.604 115.409 41.048C115.781 41.48 116.297 41.696 116.957 41.696ZM123.067 43.262V33.938H125.335V34.766H125.425C126.325 34.094 127.339 33.758 128.467 33.758C129.379 33.758 130.057 33.962 130.501 34.37C130.957 34.778 131.185 35.438 131.185 36.35V43.262H128.809V36.908C128.809 36.452 128.701 36.134 128.485 35.954C128.281 35.762 127.897 35.666 127.333 35.666C126.817 35.666 126.181 35.822 125.425 36.134V43.262H123.067ZM138.155 43.262V30.914H146.075V32.84H140.711V35.972H144.905V37.88H140.711V41.3H146.201V43.262H138.155ZM149.952 43.262L147.414 33.938H149.862L151.392 40.22H151.464L153.228 33.938H155.1L156.882 40.22H156.954L158.502 33.938H160.59L158.07 43.262H155.766L154.056 37.268H153.984L152.238 43.262H149.952ZM161.968 43.262V30.104H164.326V34.712H164.434C165.25 34.076 166.228 33.758 167.368 33.758C168.28 33.758 168.958 33.962 169.402 34.37C169.858 34.778 170.086 35.438 170.086 36.35V43.262H167.71V36.908C167.71 36.452 167.602 36.134 167.386 35.954C167.182 35.762 166.798 35.666 166.234 35.666C165.718 35.666 165.082 35.822 164.326 36.134V43.262H161.968ZM174.504 43.424C173.616 43.424 172.908 43.202 172.38 42.758C171.852 42.314 171.588 41.654 171.588 40.778C171.588 39.194 172.626 38.252 174.702 37.952L176.754 37.7V37.07C176.754 36.506 176.61 36.128 176.322 35.936C176.034 35.744 175.5 35.648 174.72 35.648C173.796 35.648 173.01 35.744 172.362 35.936V34.28C173.31 33.944 174.396 33.776 175.62 33.776C177.936 33.776 179.094 34.712 179.094 36.584V43.262H177.168L176.988 42.506H176.88C176.412 43.118 175.62 43.424 174.504 43.424ZM175.242 41.822C175.914 41.822 176.418 41.654 176.754 41.318V39.158L175.224 39.32C174.768 39.368 174.432 39.488 174.216 39.68C174.012 39.872 173.91 40.178 173.91 40.598C173.91 41.414 174.354 41.822 175.242 41.822Z" fill="white"/>
<circle cx="25" cy="30" r="25" fill="white"/>
<circle cx="25" cy="22.2078" r="9.41558" fill="#196BFC"/>
<path fill-rule="evenodd" clip-rule="evenodd" d="M5 45.1967C8.80214 37.9043 16.4586 32.9221 25.2844 32.9221C33.8984 32.9221 41.3985 37.6681 45.2885 44.676C40.7243 50.9296 33.319 54.9967 24.959 55C24.9556 55 24.9523 55 24.949 55C24.9456 55 24.9423 55 24.939 55C16.8133 54.9968 9.58961 51.1545 5 45.1967Z" fill="#196BFC"/>
</svg>
